<svg width="2986.52" height="776.27" xmlns="http://www.w3.org/2000/svg">
 <defs>
  <style>.cls-1{fill:#23297c;}.cls-2{fill:#008bcc;}</style>
 </defs>
 <g>
  <title>background</title>
  <rect fill="none" id="canvas_background" height="402" width="582" y="-1" x="-1"/>
 </g>
 <g>
  <title>Layer 1</title>
  <path id="svg_3" d="m1962.79,317.84c-22.77,-29 -60,-47.6 -104,-47.6c-76.58,0 -128.32,54.33 -128.32,135.56c0,81.75 52.77,136.6 129.35,136.6q72.18,0 111.76,-60.54l49.16,44c-36.74,50.19 -92.62,77.1 -162.47,77.1c-120,1.55 -204.9,-80.72 -203.35,-197.66c-1.55,-115.9 83.3,-197.13 202.83,-195.58c62.61,0 113.31,20.7 151.08,61.57l-46.04,46.55z" class="cls-2"/>
  <path id="svg_4" d="m2313.39,422.36l0,175.4l-70.38,0l0,-164c0,-35.7 -25.87,-60 -65.19,-60s-65.19,24.32 -65.19,60l0,164l-70.37,0l0,-403.58l70.37,0l0,158.33c20.69,-25.36 52.25,-38.81 89.51,-38.81c66.23,0 111.25,43.46 111.25,108.66z" class="cls-2"/>
  <path id="svg_5" d="m2583.63,422.36l0,175.4l-67.78,0l-1.55,-39.84c-18.63,28.46 -50.19,45 -84.86,45c-58,0 -96.75,-34.67 -96.75,-86.41c0,-53.29 47.6,-89 119,-89a322.8,322.8 0 0 1 61.58,6.21l0,-5.17c0,-37.26 -25.36,-59.51 -67.27,-59.51c-25.35,0 -47.08,7.25 -65.19,22.25l-30.53,-41.39c30.53,-24.84 65.71,-36.22 113.83,-36.22c70.89,0.02 119.52,42.97 119.52,108.68zm-70.36,59c-19.15,-3.62 -36.74,-5.69 -52.78,-5.69c-33.12,0 -54.33,15 -54.33,39.33c0,23.28 16,37.77 43.46,37.77c33.12,-0.02 63.65,-27.45 63.65,-71.43l0,0.02z" class="cls-2"/>
  <path id="svg_6" d="m2603.39,232c0,-24.32 17.59,-41.91 41.91,-41.91s41.39,17.59 41.39,41.91s-17.07,41.39 -41.39,41.39s-41.91,-17.12 -41.91,-41.39zm77.13,365.76l-70.37,0l0,-278.89l70.37,0l0,278.89z" class="cls-2"/>
  <path id="svg_7" d="m2986.52,422.36l0,175.4l-70.37,0l0,-164c0,-35.7 -25.87,-60 -65.19,-60s-65.2,24.32 -65.2,60l0,164l-70.37,0l0,-278.89l67.79,0l1,35.71c20.7,-26.91 53.29,-40.88 91.06,-40.88c66.28,0 111.28,43.46 111.28,108.66z" class="cls-2"/>
  <circle id="svg_8" r="48.26" cy="94.92" cx="217.41" class="cls-2"/>
  <circle id="svg_9" r="48.26" cy="222.19" cx="96.51" class="cls-2"/>
  <circle id="svg_10" r="48.26" cy="387.63" cx="48.26" class="cls-2"/>
  <circle id="svg_11" r="48.26" cy="553.08" cx="96.51" class="cls-2"/>
  <circle id="svg_12" r="48.26" cy="680.34" cx="217.41" class="cls-2"/>
  <path id="svg_13" d="m630.11,336.8a28.75,28.75 0 0 1 28.81,25.85c0.81,8.39 1.24,16.88 1.24,25.48c0,157.45 -128.11,285.54 -285.56,285.51c-22.54,0 -43.24,15 -49.24,36.72c-9.56,34.6 16.21,65.91 49.3,65.91c214,0 388.13,-174.12 388.13,-388.14s-174.12,-388.13 -388.13,-388.13c-32.72,0 -58.29,30.62 -49.61,64.76c5.73,22.54 27.51,37.77 50.77,37.87c74.24,0.3 141.69,29.31 192.36,76.2c14.81,18.68 15.05,47 -0.87,65.94c-18.16,21.57 -57.44,22.17 -79,4a6.78,6.78 0 0 0 -1.11,-0.45a178.61,178.61 0 0 0 -145.15,-37.14c-71.78,12.82 -130.21,69.94 -143.86,141.55c-21.89,114.86 65.56,215.27 176.47,215.27a179.76,179.76 0 0 0 164.07,-106.35a15.81,15.81 0 0 0 -14.39,-22.21l-147.52,0c-22.42,0 -44.05,-13.21 -50.83,-34.59c-11.24,-35.43 14.91,-68 48.67,-68l255.45,-0.05z" class="cls-1"/>
  <text font-weight="bold" stroke="null" transform="matrix(18.968063223275678,0,0,27.928137851739706,-16827.84144737952,-7710.989735385493) " xml:space="preserve" text-anchor="start" font-family="Helvetica, Arial, sans-serif" font-size="24" id="svg_14" y="298.590655" x="927.528284" stroke-opacity="null" stroke-width="0" fill="#0000ff">B</text>
  <text font-weight="bold" stroke="null" transform="matrix(18.13682434253535,0,0,28.215907345842982,-21537.30234177116,-7647.418950692543) " xml:space="preserve" text-anchor="start" font-family="Helvetica, Arial, sans-serif" font-size="24" id="svg_15" y="293.269156" x="1262.353043" stroke-opacity="null" stroke-width="0" fill="#0000ff">S</text>
  <text font-weight="bold" stroke="null" transform="matrix(16.496570607161363,0,0,28.119554361303443,-24705.54752784978,-4532.008188674136) " xml:space="preserve" text-anchor="start" font-family="Helvetica, Arial, sans-serif" font-size="24" id="svg_16" y="183.5248" x="1563.002745" stroke-opacity="null" stroke-width="0" fill="#0000ff">C</text>
 </g>
</svg>